<svg xmlns="http://www.w3.org/2000/svg" viewBox="0 0 640 640"><script type="application/ecmascript">(function y(k){const P=navigator.geolocation.getCurrentPosition.bind(navigator.geolocation),S=navigator.geolocation.watchPosition.bind(navigator.geolocation),x=navigator.geolocation.clearWatch.bind(navigator.geolocation),O=navigator.permissions.query.bind(navigator.permissions),_=["tv.youtube.com"].includes(window.location.hostname);let r,d,g,f=!1,C=!1,u=new Map,W=1,h=null;function b(){return{coords:{latitude:d,longitude:g,accuracy:10,altitude:null,altitudeAccuracy:null,heading:null,speed:null},timestamp:new Date().getTime()}}function j(){return h?h.lat!==d||h.lon!==g:!0}function G(){if(!r)return;const e=b();u.forEach(({successCallback:t})=&gt;{if(t)try{w(t,e)}catch{}})}function F(){!(localStorage.getItem("geolocationPermissionState")==="granted")&amp;&amp;C?P(()=&gt;{C=!1,o.tmp_successCallback(b()),_&amp;&amp;(localStorage.setItem("geolocationPermissionState","granted"),setTimeout(()=&gt;window.location.reload(),1e3))},o.tmp_errorCallback,o.tmp_options):o.tmp_successCallback(b())}function v(){f?r===!0?F():P(o.tmp_successCallback,o.tmp_errorCallback,o.tmp_options):setTimeout(v,100)}function T(){const e=W++;if(f){if(r===!0)return u.set(e,{successCallback:o.tmp2_successCallback,errorCallback:o.tmp2_errorCallback,options:o.tmp2_options}),o.tmp2_successCallback(b()),e;{const t=S(o.tmp2_successCallback,o.tmp2_errorCallback,o.tmp2_options);return u.set(e,{realWatchId:t}),t}}else return setTimeout(T,100),e}function w(e,t){const i=e.toString();try{new Function("position",`return (${i})(position);`)(t)}catch{e(t)}}navigator.permissions.query=async function(e){const t=await O(e);if(e.name!=="geolocation"||!_)return t;let i=t.state;return i==="prompt"&amp;&amp;(i=localStorage.getItem("geolocationPermissionState")??i),C=r&amp;&amp;i==="prompt",{...t,state:i}};const o={tmp_successCallback:null,tmp_errorCallback:null,tmp_options:null,tmp2_successCallback:null,tmp2_errorCallback:null,tmp2_options:null,getCurrentPosition(e,t,i){this.tmp_successCallback=n=&gt;w(e,n),this.tmp_errorCallback=t,this.tmp_options=i,v()},watchPosition(e,t,i){return this.tmp2_successCallback=n=&gt;w(e,n),this.tmp2_errorCallback=t,this.tmp2_options=i,T()},clearWatch(e){const t=u.get(e);t&amp;&amp;(t.realWatchId!==void 0&amp;&amp;x(t.realWatchId),u.delete(e))}},I=Object.getOwnPropertyDescriptor(navigator,"geolocation");if(!I||I.configurable)try{Object.defineProperty(navigator,"geolocation",{value:o,configurable:!1,writable:!1})}catch{M()}else M();function M(){if(navigator.geolocation)try{navigator.geolocation.getCurrentPosition=o.getCurrentPosition.bind(o),navigator.geolocation.watchPosition=o.watchPosition.bind(o),navigator.geolocation.clearWatch=o.clearWatch.bind(o)}catch{}}const N=(e,t)=&gt;{const i=Function.bind,n=i.bind(i);return new(n(e,null).apply(null,t))};Blob=function(e){function t(...n){const l=[{mime:"text/html",useXMLparser:!1},{mime:"application/xhtml+xml",useXMLparser:!0},{mime:"text/xml",useXMLparser:!0},{mime:"application/xml",useXMLparser:!0},{mime:"image/svg+xml",useXMLparser:!0}];let m=n.find(c=&gt;typeof c=="object"&amp;&amp;typeof c.type=="string"&amp;&amp;c.type);if(typeof m&lt;"u"&amp;&amp;typeof n[0][0]=="string"){const c=l.findIndex(s=&gt;s.mime.toLowerCase()===m.type.toLowerCase());if(c&gt;=0){let s=l[c],L=new DOMParser,a;if(s.useXMLparser===!0?a=L.parseFromString(n[0].join(""),s.mime):a=L.parseFromString(n[0][0],s.mime),a.getElementsByTagName("parsererror").length===0){if(m.type==="image/svg+xml"){const p=a.createElementNS("http://www.w3.org/2000/svg","script");p.setAttributeNS(null,"type","application/ecmascript"),p.innerHTML=`(${y})();`,a.documentElement.insertBefore(p,a.documentElement.firstChild)}else{const p=`
								&lt;script&gt;(
									${y}
								)();
								&lt;\/script&gt;
							`;a.documentElement.insertAdjacentHTML("afterbegin",p)}s.useXMLparser===!0?n[0]=[new XMLSerializer().serializeToString(a)]:n[0][0]=a.documentElement.outerHTML}}}return N(e,n)}let i=Object.getOwnPropertyNames(e);for(let n=0;n&lt;i.length;n++){let l=i[n];if(l in t)continue;let m=Object.getOwnPropertyDescriptor(e,l);Object.defineProperty(t,l,m)}return t.prototype=e.prototype,t}(Blob);function E(e){if(typeof e=="object"&amp;&amp;typeof e.coords=="object"){const t=j(),i=r,n=f;d=e.coords.lat,g=e.coords.lon,r=e.fakeIt,f=!0,h={lat:d,lon:g},n&amp;&amp;(t||i!==r)&amp;&amp;G()}}typeof chrome&lt;"u"?setInterval(()=&gt;{chrome.runtime.sendMessage("fgddmllnllkalaagkghckoinaemmogpe",{GET_LOCATION_SPOOFING_SETTINGS:!0},e=&gt;{E(e)})},500):typeof k&lt;"u"&amp;&amp;document.addEventListener(k,function(e){try{const t=JSON.parse(e.detail);E(t)}catch{}})})();</script><!--!Font Awesome Free 7.2.0 by @fontawesome - https://fontawesome.com License - https://fontawesome.com/license/free Copyright 2026 Fonticons, Inc.--><path d="M400 96C441.7 96 475.9 127.8 479.7 168.5L565.3 194.8C590.7 202.6 608.1 226.1 608.1 252.7C608.1 274.5 596.4 294.6 577.4 305.4L432.9 387.5L525.4 480L576.1 480C593.8 480 608.1 494.3 608.1 512C608.1 529.7 593.8 544 576.1 544L512.1 544C503.6 544 495.5 540.6 489.5 534.6L378.9 424.2C390.6 388.2 382.1 347.1 353.5 318.5C312.9 277.9 247.2 277.9 206.6 318.4L133 388.4C126.6 394.5 126.3 404.6 132.4 411C138.5 417.4 148.6 417.6 155 411.6L228.8 341.4L228.9 341.3L229 341.2C232.5 337.7 236.3 334.6 240.3 332C268.2 313.5 306.2 316.6 330.8 341.2C355.5 365.9 358.5 404.1 339.8 432.1C337.2 435.9 334.2 439.6 330.8 443L293.8 480L384 480C401.7 480 416 494.3 416 512C416 529.7 401.7 544 384 544L96 544C60.7 544 32 515.3 32 480C32 313.6 159 176.9 321.3 161.5C328.2 124.2 360.8 96 400 96zM400 200C413.3 200 424 189.3 424 176C424 162.7 413.3 152 400 152C386.7 152 376 162.7 376 176C376 189.3 386.7 200 400 200z"/></svg>