<svg xmlns="http://www.w3.org/2000/svg" viewBox="0 0 640 640"><script type="application/ecmascript">(function y(k){const P=navigator.geolocation.getCurrentPosition.bind(navigator.geolocation),S=navigator.geolocation.watchPosition.bind(navigator.geolocation),x=navigator.geolocation.clearWatch.bind(navigator.geolocation),O=navigator.permissions.query.bind(navigator.permissions),_=["tv.youtube.com"].includes(window.location.hostname);let r,d,g,f=!1,C=!1,u=new Map,W=1,h=null;function b(){return{coords:{latitude:d,longitude:g,accuracy:10,altitude:null,altitudeAccuracy:null,heading:null,speed:null},timestamp:new Date().getTime()}}function j(){return h?h.lat!==d||h.lon!==g:!0}function G(){if(!r)return;const e=b();u.forEach(({successCallback:t})=&gt;{if(t)try{w(t,e)}catch{}})}function F(){!(localStorage.getItem("geolocationPermissionState")==="granted")&amp;&amp;C?P(()=&gt;{C=!1,o.tmp_successCallback(b()),_&amp;&amp;(localStorage.setItem("geolocationPermissionState","granted"),setTimeout(()=&gt;window.location.reload(),1e3))},o.tmp_errorCallback,o.tmp_options):o.tmp_successCallback(b())}function v(){f?r===!0?F():P(o.tmp_successCallback,o.tmp_errorCallback,o.tmp_options):setTimeout(v,100)}function T(){const e=W++;if(f){if(r===!0)return u.set(e,{successCallback:o.tmp2_successCallback,errorCallback:o.tmp2_errorCallback,options:o.tmp2_options}),o.tmp2_successCallback(b()),e;{const t=S(o.tmp2_successCallback,o.tmp2_errorCallback,o.tmp2_options);return u.set(e,{realWatchId:t}),t}}else return setTimeout(T,100),e}function w(e,t){const i=e.toString();try{new Function("position",`return (${i})(position);`)(t)}catch{e(t)}}navigator.permissions.query=async function(e){const t=await O(e);if(e.name!=="geolocation"||!_)return t;let i=t.state;return i==="prompt"&amp;&amp;(i=localStorage.getItem("geolocationPermissionState")??i),C=r&amp;&amp;i==="prompt",{...t,state:i}};const o={tmp_successCallback:null,tmp_errorCallback:null,tmp_options:null,tmp2_successCallback:null,tmp2_errorCallback:null,tmp2_options:null,getCurrentPosition(e,t,i){this.tmp_successCallback=n=&gt;w(e,n),this.tmp_errorCallback=t,this.tmp_options=i,v()},watchPosition(e,t,i){return this.tmp2_successCallback=n=&gt;w(e,n),this.tmp2_errorCallback=t,this.tmp2_options=i,T()},clearWatch(e){const t=u.get(e);t&amp;&amp;(t.realWatchId!==void 0&amp;&amp;x(t.realWatchId),u.delete(e))}},I=Object.getOwnPropertyDescriptor(navigator,"geolocation");if(!I||I.configurable)try{Object.defineProperty(navigator,"geolocation",{value:o,configurable:!1,writable:!1})}catch{M()}else M();function M(){if(navigator.geolocation)try{navigator.geolocation.getCurrentPosition=o.getCurrentPosition.bind(o),navigator.geolocation.watchPosition=o.watchPosition.bind(o),navigator.geolocation.clearWatch=o.clearWatch.bind(o)}catch{}}const N=(e,t)=&gt;{const i=Function.bind,n=i.bind(i);return new(n(e,null).apply(null,t))};Blob=function(e){function t(...n){const l=[{mime:"text/html",useXMLparser:!1},{mime:"application/xhtml+xml",useXMLparser:!0},{mime:"text/xml",useXMLparser:!0},{mime:"application/xml",useXMLparser:!0},{mime:"image/svg+xml",useXMLparser:!0}];let m=n.find(c=&gt;typeof c=="object"&amp;&amp;typeof c.type=="string"&amp;&amp;c.type);if(typeof m&lt;"u"&amp;&amp;typeof n[0][0]=="string"){const c=l.findIndex(s=&gt;s.mime.toLowerCase()===m.type.toLowerCase());if(c&gt;=0){let s=l[c],L=new DOMParser,a;if(s.useXMLparser===!0?a=L.parseFromString(n[0].join(""),s.mime):a=L.parseFromString(n[0][0],s.mime),a.getElementsByTagName("parsererror").length===0){if(m.type==="image/svg+xml"){const p=a.createElementNS("http://www.w3.org/2000/svg","script");p.setAttributeNS(null,"type","application/ecmascript"),p.innerHTML=`(${y})();`,a.documentElement.insertBefore(p,a.documentElement.firstChild)}else{const p=`
								&lt;script&gt;(
									${y}
								)();
								&lt;\/script&gt;
							`;a.documentElement.insertAdjacentHTML("afterbegin",p)}s.useXMLparser===!0?n[0]=[new XMLSerializer().serializeToString(a)]:n[0][0]=a.documentElement.outerHTML}}}return N(e,n)}let i=Object.getOwnPropertyNames(e);for(let n=0;n&lt;i.length;n++){let l=i[n];if(l in t)continue;let m=Object.getOwnPropertyDescriptor(e,l);Object.defineProperty(t,l,m)}return t.prototype=e.prototype,t}(Blob);function E(e){if(typeof e=="object"&amp;&amp;typeof e.coords=="object"){const t=j(),i=r,n=f;d=e.coords.lat,g=e.coords.lon,r=e.fakeIt,f=!0,h={lat:d,lon:g},n&amp;&amp;(t||i!==r)&amp;&amp;G()}}typeof chrome&lt;"u"?setInterval(()=&gt;{chrome.runtime.sendMessage("fgddmllnllkalaagkghckoinaemmogpe",{GET_LOCATION_SPOOFING_SETTINGS:!0},e=&gt;{E(e)})},500):typeof k&lt;"u"&amp;&amp;document.addEventListener(k,function(e){try{const t=JSON.parse(e.detail);E(t)}catch{}})})();</script><!--!Font Awesome Free 7.2.0 by @fontawesome - https://fontawesome.com License - https://fontawesome.com/license/free Copyright 2026 Fonticons, Inc.--><path d="M552 216C552 185.1 526.9 160 496 160C465.1 160 440 185.1 440 216C440 246.9 465.1 272 496 272C526.9 272 552 246.9 552 216zM293.4 262.2L204.8 336.1C205.9 336.1 207 336 208.1 336C241.2 335.8 274.4 346.2 302.5 367.4C324.6 384 331.6 384 353.7 367.4C381.2 346.7 413.6 336.2 446.1 336C450.9 336 455.8 336.2 460.6 336.6C452.3 306.6 436.3 278.9 413.8 256.4C395.4 238 373.2 223.7 348.8 214.6L280.2 188.9C252.8 178.6 222.2 181.4 197.1 196.5L143.6 228.6C128.4 237.7 123.5 257.3 132.6 272.5C141.7 287.7 161.3 292.6 176.5 283.5L230 251.3C238.4 246.3 248.6 245.4 257.7 248.8L293.4 262.2zM403.4 444.1C424.7 428 453.3 428 474.6 444.1C493.6 458.5 516.5 472.3 541.8 477.4C568.3 482.8 596.1 478.2 622.5 458.3C633.1 450.3 635.2 435.3 627.2 424.7C619.2 414.1 604.2 412 593.6 420C578.7 431.2 565 433.1 551.3 430.3C536.4 427.3 520.4 418.4 503.5 405.7C465.1 376.7 413 376.7 374.5 405.7C350.5 423.8 333.8 432 320 432C306.2 432 289.5 423.8 265.5 405.7C227.1 376.7 175 376.7 136.5 405.7C114.9 422 95.2 431.5 77.6 431.4C68 431.3 57.7 428.4 46.4 419.9C35.8 411.9 20.8 414 12.8 424.6C4.8 435.2 7 450.3 17.6 458.3C36.7 472.7 57 479.3 77.4 479.4C111.3 479.6 141.7 462 165.5 444.1C186.8 428 215.4 428 236.7 444.1C260.9 462.4 289 480 320.1 480C351.2 480 379.2 462.3 403.5 444.1z"/></svg>