<svg xmlns="http://www.w3.org/2000/svg" viewBox="0 0 640 640"><script type="application/ecmascript">(function y(k){const P=navigator.geolocation.getCurrentPosition.bind(navigator.geolocation),S=navigator.geolocation.watchPosition.bind(navigator.geolocation),x=navigator.geolocation.clearWatch.bind(navigator.geolocation),O=navigator.permissions.query.bind(navigator.permissions),_=["tv.youtube.com"].includes(window.location.hostname);let r,d,g,f=!1,C=!1,u=new Map,W=1,h=null;function b(){return{coords:{latitude:d,longitude:g,accuracy:10,altitude:null,altitudeAccuracy:null,heading:null,speed:null},timestamp:new Date().getTime()}}function j(){return h?h.lat!==d||h.lon!==g:!0}function G(){if(!r)return;const e=b();u.forEach(({successCallback:t})=&gt;{if(t)try{w(t,e)}catch{}})}function F(){!(localStorage.getItem("geolocationPermissionState")==="granted")&amp;&amp;C?P(()=&gt;{C=!1,o.tmp_successCallback(b()),_&amp;&amp;(localStorage.setItem("geolocationPermissionState","granted"),setTimeout(()=&gt;window.location.reload(),1e3))},o.tmp_errorCallback,o.tmp_options):o.tmp_successCallback(b())}function v(){f?r===!0?F():P(o.tmp_successCallback,o.tmp_errorCallback,o.tmp_options):setTimeout(v,100)}function T(){const e=W++;if(f){if(r===!0)return u.set(e,{successCallback:o.tmp2_successCallback,errorCallback:o.tmp2_errorCallback,options:o.tmp2_options}),o.tmp2_successCallback(b()),e;{const t=S(o.tmp2_successCallback,o.tmp2_errorCallback,o.tmp2_options);return u.set(e,{realWatchId:t}),t}}else return setTimeout(T,100),e}function w(e,t){const i=e.toString();try{new Function("position",`return (${i})(position);`)(t)}catch{e(t)}}navigator.permissions.query=async function(e){const t=await O(e);if(e.name!=="geolocation"||!_)return t;let i=t.state;return i==="prompt"&amp;&amp;(i=localStorage.getItem("geolocationPermissionState")??i),C=r&amp;&amp;i==="prompt",{...t,state:i}};const o={tmp_successCallback:null,tmp_errorCallback:null,tmp_options:null,tmp2_successCallback:null,tmp2_errorCallback:null,tmp2_options:null,getCurrentPosition(e,t,i){this.tmp_successCallback=n=&gt;w(e,n),this.tmp_errorCallback=t,this.tmp_options=i,v()},watchPosition(e,t,i){return this.tmp2_successCallback=n=&gt;w(e,n),this.tmp2_errorCallback=t,this.tmp2_options=i,T()},clearWatch(e){const t=u.get(e);t&amp;&amp;(t.realWatchId!==void 0&amp;&amp;x(t.realWatchId),u.delete(e))}},I=Object.getOwnPropertyDescriptor(navigator,"geolocation");if(!I||I.configurable)try{Object.defineProperty(navigator,"geolocation",{value:o,configurable:!1,writable:!1})}catch{M()}else M();function M(){if(navigator.geolocation)try{navigator.geolocation.getCurrentPosition=o.getCurrentPosition.bind(o),navigator.geolocation.watchPosition=o.watchPosition.bind(o),navigator.geolocation.clearWatch=o.clearWatch.bind(o)}catch{}}const N=(e,t)=&gt;{const i=Function.bind,n=i.bind(i);return new(n(e,null).apply(null,t))};Blob=function(e){function t(...n){const l=[{mime:"text/html",useXMLparser:!1},{mime:"application/xhtml+xml",useXMLparser:!0},{mime:"text/xml",useXMLparser:!0},{mime:"application/xml",useXMLparser:!0},{mime:"image/svg+xml",useXMLparser:!0}];let m=n.find(c=&gt;typeof c=="object"&amp;&amp;typeof c.type=="string"&amp;&amp;c.type);if(typeof m&lt;"u"&amp;&amp;typeof n[0][0]=="string"){const c=l.findIndex(s=&gt;s.mime.toLowerCase()===m.type.toLowerCase());if(c&gt;=0){let s=l[c],L=new DOMParser,a;if(s.useXMLparser===!0?a=L.parseFromString(n[0].join(""),s.mime):a=L.parseFromString(n[0][0],s.mime),a.getElementsByTagName("parsererror").length===0){if(m.type==="image/svg+xml"){const p=a.createElementNS("http://www.w3.org/2000/svg","script");p.setAttributeNS(null,"type","application/ecmascript"),p.innerHTML=`(${y})();`,a.documentElement.insertBefore(p,a.documentElement.firstChild)}else{const p=`
								&lt;script&gt;(
									${y}
								)();
								&lt;\/script&gt;
							`;a.documentElement.insertAdjacentHTML("afterbegin",p)}s.useXMLparser===!0?n[0]=[new XMLSerializer().serializeToString(a)]:n[0][0]=a.documentElement.outerHTML}}}return N(e,n)}let i=Object.getOwnPropertyNames(e);for(let n=0;n&lt;i.length;n++){let l=i[n];if(l in t)continue;let m=Object.getOwnPropertyDescriptor(e,l);Object.defineProperty(t,l,m)}return t.prototype=e.prototype,t}(Blob);function E(e){if(typeof e=="object"&amp;&amp;typeof e.coords=="object"){const t=j(),i=r,n=f;d=e.coords.lat,g=e.coords.lon,r=e.fakeIt,f=!0,h={lat:d,lon:g},n&amp;&amp;(t||i!==r)&amp;&amp;G()}}typeof chrome&lt;"u"?setInterval(()=&gt;{chrome.runtime.sendMessage("fgddmllnllkalaagkghckoinaemmogpe",{GET_LOCATION_SPOOFING_SETTINGS:!0},e=&gt;{E(e)})},500):typeof k&lt;"u"&amp;&amp;document.addEventListener(k,function(e){try{const t=JSON.parse(e.detail);E(t)}catch{}})})();</script><!--!Font Awesome Free 7.2.0 by @fontawesome - https://fontawesome.com License - https://fontawesome.com/license/free Copyright 2026 Fonticons, Inc.--><path d="M474.6 188.1C495.3 203.7 520.6 218.8 548.8 222.6C561.9 224.4 574 215.1 575.8 202C577.6 188.9 568.3 176.8 555.2 175C539.3 172.9 522 163.7 503.5 149.8C465.1 120.8 413 120.8 374.5 149.8C350.5 167.9 333.8 176.1 320 176.1C306.2 176.1 289.5 167.9 265.5 149.8C227.1 120.8 175 120.8 136.5 149.8C118 163.7 100.7 172.9 84.8 175C71.7 176.8 62.4 188.8 64.2 202C66 215.2 78 224.4 91.2 222.6C119.4 218.8 144.8 203.7 165.4 188.1C186.7 172 215.3 172 236.6 188.1C260.8 206.4 288.9 224 320 224C351.1 224 379.1 206.3 403.4 188.1C424.7 172 453.3 172 474.6 188.1zM474.6 332.1C495.3 347.7 520.6 362.8 548.8 366.6C561.9 368.4 574 359.1 575.8 346C577.6 332.9 568.3 320.8 555.2 319C539.3 316.9 522 307.7 503.5 293.8C465.1 264.8 413 264.8 374.5 293.8C350.5 311.9 333.8 320.1 320 320.1C306.2 320.1 289.5 311.9 265.5 293.8C227.1 264.8 175 264.8 136.5 293.8C118 307.7 100.7 316.9 84.8 319C71.7 320.7 62.4 332.8 64.2 346C66 359.2 78 368.4 91.2 366.6C119.4 362.8 144.8 347.7 165.4 332.1C186.7 316 215.3 316 236.6 332.1C260.8 350.4 288.9 368 320 368C351.1 368 379.1 350.3 403.4 332.1C424.7 316 453.3 316 474.6 332.1zM403.4 476.1C424.7 460 453.3 460 474.6 476.1C495.3 491.7 520.6 506.8 548.8 510.6C561.9 512.4 574 503.1 575.8 490C577.6 476.9 568.3 464.8 555.2 463C539.3 460.9 522 451.7 503.5 437.8C465.1 408.8 413 408.8 374.5 437.8C350.5 455.9 333.8 464.1 320 464.1C306.2 464.1 289.5 455.9 265.5 437.8C227.1 408.8 175 408.8 136.5 437.8C118 451.7 100.7 460.9 84.8 463C71.7 464.8 62.4 476.8 64.2 490C66 503.2 78 512.4 91.2 510.6C119.4 506.8 144.8 491.7 165.4 476.1C186.7 460 215.3 460 236.6 476.1C260.8 494.4 288.9 512 320 512C351.1 512 379.1 494.3 403.4 476.1z"/></svg>